<?xml version="1.0" encoding="utf-8"?>
<!-- Generator: Adobe Illustrator 24.0.0, SVG Export Plug-In . SVG Version: 6.00 Build 0)  -->
<svg version="1.1" id="e68dbd7a-f016-4106-bd43-819e1c5dde08"
	 xmlns="http://www.w3.org/2000/svg" xmlns:xlink="http://www.w3.org/1999/xlink" x="0px" y="0px" viewBox="0 0 913 672.8"
	 style="enable-background:new 0 0 913 672.8;" xml:space="preserve">
<style type="text/css">
	.st0{fill:#D0CDE1;}
	.st1{fill:#F2F2F2;}
	.st2{fill:#3F3D56;}
	.st3{fill:#2F2E41;}
	.st4{fill:#FFB8B8;}
	.st5{opacity:0.1;enable-background:new    ;}
	.st6{fill:#FDD2C3;}
</style>
<title>exciting_news</title>
<path class="st0" d="M708.5,604.1H441.6c0,0-5.4-79.3,26.6-80.2s28.4,35.2,68.5-14.4s88.8-46.9,95.1-17.6s-12.2,52.7,21.6,45.5
	S736,549.1,708.5,604.1z"/>
<path class="st1" d="M570.5,604.1l-0.9,0c2.1-52.2,13-85.8,21.8-104.8c9.6-20.6,18.8-28.9,18.9-29l0.6,0.7
	c-0.1,0.1-9.2,8.3-18.7,28.8C583.5,518.6,572.6,552,570.5,604.1z"/>
<path class="st1" d="M667.1,604.2l-0.9-0.3c10.4-35.8,35-58.4,35.2-58.6l0.6,0.7C701.8,546.2,677.5,568.7,667.1,604.2z"/>
<path class="st1" d="M483.6,604.1l-0.9-0.1c3.5-25.5-2.9-45.3-8.8-57.4c-6.5-13.1-13.9-20.3-13.9-20.3l0.6-0.7
	c0.1,0.1,7.6,7.3,14.1,20.6C480.8,558.4,487.2,578.4,483.6,604.1z"/>
<path class="st2" d="M744.7,606.3H412.8l-0.1-1.1c-0.2-2.8-4.4-68.8,17-92.3c4.8-5.3,10.5-8,17.1-8.2c13.9-0.4,22.7,4.8,29.8,9
	c13.3,7.9,22.1,13.1,54.1-26.4c34.6-42.8,72-52,93.5-46.9c13.9,3.3,23.4,12.7,26.2,25.7c2.7,12.3,1.8,23.9,1.1,33.2
	c-0.7,9.9-1.3,17.8,2.8,21.4c3.4,3,10.2,3.2,21.4,0.8c22.8-4.9,54.6-0.7,70.5,19.9c8.6,11.1,15.3,31.2-1.2,64.3L744.7,606.3z
	 M415.1,603.9h328.1c12.3-25,12.7-46.1,1.1-61.1c-14.6-18.9-45.3-23.9-68.1-19c-12.2,2.6-19.4,2.2-23.5-1.4
	c-5-4.4-4.4-12.7-3.6-23.4c0.7-9.1,1.5-20.5-1.1-32.5c-2.6-12.1-11.5-20.7-24.4-23.8c-20.8-5-57.1,4.1-91.1,46.1
	c-33.3,41.1-43.3,35.2-57.2,27c-7.1-4.2-15.3-9-28.5-8.7c-5.9,0.2-11.1,2.7-15.4,7.4C412.3,535.6,414.6,594.9,415.1,603.9z"/>
<path class="st2" d="M85,606.8l-1.3-0.5c-0.3-0.1-28-10.7-41-34.8c-13-24.1-6.6-53.1-6.6-53.4l0.3-1.3l1.3,0.5
	c0.3,0.1,28,10.7,41,34.8c13,24.1,6.6,53.1,6.6,53.4L85,606.8z M44.8,570.4c11,20.4,32.9,30.8,38.4,33.2c1.1-5.9,4.4-30-6.6-50.3
	c-11-20.3-32.9-30.8-38.4-33.2C37.1,526,33.8,550,44.8,570.4z"/>
<path class="st0" d="M52.6,563C76,577.1,84.9,605,84.9,605s-28.8,5.1-52.2-8.9S0.5,554.1,0.5,554.1S29.3,549,52.6,563z"/>
<rect y="604.2" class="st2" width="755" height="2.4"/>
<path class="st3" d="M260.6,3.9c0,0-15.8-5.6-25.9,16.9s-25.9,47.3-25.9,47.3l9,2.3c0,0,2.3-15.8,7.9-18l-2.3,20.3
	c0,0,67.6,23.6,98-2.3l-1.1-7.9c0,0,4.5,1.1,4.5,7.9l3.4-3.4c0,0-3.4-6.8-13.5-15.8c-6.7-5.9-8.9-17.2-9.7-24.2
	c-0.6-5.9-2.9-11.4-6.7-15.9C291.4,3.2,279.2-5.1,260.6,3.9z"/>
<path class="st3" d="M218,201.4l-1.3,23.2c0,0-29.6,48.9-24.5,112S130.5,558.1,182,565.9s70.8,23.2,76,5.2
	c5.2-18,10.3-239.6,10.3-239.6s0,248.6,65.7,243.4s69.5-11.6,68.3-19.3s-87.6-336.1-88.9-338.7c-1.3-2.6-27-20.6-27-20.6L218,201.4z
	"/>
<path class="st3" d="M192.3,563.3l-2.6,46.4c0,0-37.3,63.1-11.6,63.1s41.2-27,41.2-36.1v-70.8L192.3,563.3z"/>
<path class="st3" d="M359.7,563.3l2.6,46.4c0,0,37.3,63.1,11.6,63.1s-41.2-27-41.2-36.1v-70.8L359.7,563.3z"/>
<ellipse transform="matrix(0.2182 -0.9759 0.9759 0.2182 161.6551 299.3062)" class="st4" cx="267.6" cy="48.8" rx="29" ry="29"/>
<path class="st4" d="M247.7,55.2c0,0,0,42.5-3.1,45.1s41.1,1.3,41.1,1.3s-7.2-37.3-6.2-39.9S247.7,55.2,247.7,55.2z"/>
<path class="st0" d="M304.3,97.1c0,0-9.7-17.4-21.3-20c-14.5-3.2-33.5-2.6-36.1-1.3s-13.5,21.3-13.5,21.3s-28.3,14.2-28.3,16.7
	s9,97.9,9,97.9s27,7.7,52.8-1.3s50.2,14.2,50.2,14.2l15.5-114.6L304.3,97.1z"/>
<path class="st0" d="M212.9,113.8c0,0-36.1,0-39.9,24.5s6.4,52.8,21.9,60.5s25.8,11.6,29.6,6.4S212.9,113.8,212.9,113.8z"/>
<path class="st0" d="M322.4,109.9h10.3c0,0,39.9,39.9,39.9,58s-47.7,46.4-56.7,43.8C306.9,209.1,322.4,109.9,322.4,109.9z"/>
<path class="st3" d="M234.4,53c0,0,9-12.4,16.9-14.6c7.9-2.3,9-13.5,9-13.5s20.3,22.5,32.7,23.6s1.1-27,1.1-27l-22.5-5.6l-21.4,2.3
	l-16.9,11.3L234.4,53z"/>
<polygon class="st5" points="204.5,114.4 189.1,154.4 208.8,114 "/>
<polygon class="st5" points="327.5,112.3 360.4,160.8 332.3,112.3 "/>
<path class="st4" d="M293.2,99.2c0,0-13.5-27.9,1.6-28.2s16.2,24.1,16.2,24.1L293.2,99.2z"/>
<path class="st0" d="M357.1,161.5l-37.3-61.8l-6.4-12.9l-21.3,9l4.6,30.9c0,0-1.3,20.6,3.9,27c5.2,6.4,24.5,51.5,24.5,51.5
	L357.1,161.5z"/>
<polygon class="st5" points="292.1,95.1 301.3,209.5 317,208.8 "/>
<path class="st4" d="M223.8,84.8c0,0-2.6-30.9,11.6-25.8s6.4,28.3,6.4,28.3L223.8,84.8z"/>
<path class="st0" d="M187.1,156.3l28.3-56.7c0,0,0-9,2.6-11.6s2.6-7.7,2.6-7.7h24.5l1.3,25.8c0,0,5.2,19.3,0,43.8
	s-12.9,55.4-14.2,55.4S184.6,185.9,187.1,156.3z"/>
<polygon class="st5" points="244.4,79.7 234.1,204.6 249.6,207.2 "/>
<rect x="54.3" y="330.1" transform="matrix(0.9327 -0.3607 0.3607 0.9327 -119.7469 48.3721)" class="st6" width="30.9" height="29.8"/>
<path class="st2" d="M84.3,351.1L54,362.9l-11.3-29.3L73,321.8L84.3,351.1z M54.9,360.8l27.3-10.6L72,323.9l-27.3,10.6L54.9,360.8z"
	/>
</svg>
